<?xml version="1.0" encoding="UTF-8"?>
<svg width="796px" height="172px" viewBox="0 0 796 172" version="1.1" xmlns="http://www.w3.org/2000/svg" xmlns:xlink="http://www.w3.org/1999/xlink">
    <!-- Generator: Sketch 49.3 (51167) - http://www.bohemiancoding.com/sketch -->
    <title>Slice</title>
    <desc>Created with Sketch.</desc>
    <defs></defs>
    <g id="Page-1" stroke="none" stroke-width="1" fill="none" fill-rule="evenodd">
        <path d="M69.05,47 C70.783342,47 72.416659,47.33333 73.95,48 C75.483341,48.66667 76.816661,49.566661 77.95,50.7 C79.083339,51.833339 79.98333,53.166659 80.65,54.7 C81.31667,56.233341 81.65,57.866658 81.65,59.6 L81.65,104.4 C81.65,106.133342 81.31667,107.766659 80.65,109.3 C79.98333,110.833341 79.083339,112.166661 77.95,113.3 C76.816661,114.433339 75.483341,115.33333 73.95,116 C72.416659,116.66667 70.783342,117 69.05,117 L54.05,117 C53.116662,117 52.65,116.533338 52.65,115.6 L52.65,48.4 C52.65,47.466662 53.116662,47 54.05,47 L69.05,47 Z M69.95,60.1 C69.95,59.43333 69.716669,58.866669 69.25,58.4 C68.783331,57.933331 68.21667,57.7 67.55,57.7 L64.35,57.7 L64.35,106.3 L67.55,106.3 C68.21667,106.3 68.783331,106.066669 69.25,105.6 C69.716669,105.133331 69.95,104.56667 69.95,103.9 L69.95,60.1 Z M117.65,105.1 C117.65,106.833342 117.31667,108.466659 116.65,110 C115.98333,111.533341 115.083339,112.866661 113.95,114 C112.816661,115.133339 111.483341,116.03333 109.95,116.7 C108.416659,117.36667 106.783342,117.7 105.05,117.7 L101.25,117.7 C99.516658,117.7 97.883341,117.36667 96.35,116.7 C94.816659,116.03333 93.483339,115.133339 92.35,114 C91.216661,112.866661 90.31667,111.533341 89.65,110 C88.98333,108.466659 88.65,106.833342 88.65,105.1 L88.65,58.9 C88.65,57.166658 88.98333,55.533341 89.65,54 C90.31667,52.466659 91.216661,51.133339 92.35,50 C93.483339,48.866661 94.816659,47.96667 96.35,47.3 C97.883341,46.63333 99.516658,46.3 101.25,46.3 L105.05,46.3 C106.783342,46.3 108.416659,46.63333 109.95,47.3 C111.483341,47.96667 112.816661,48.866661 113.95,50 C115.083339,51.133339 115.98333,52.466659 116.65,54 C117.31667,55.533341 117.65,57.166658 117.65,58.9 L117.65,105.1 Z M105.95,59.4 C105.95,58.73333 105.716669,58.166669 105.25,57.7 C104.783331,57.233331 104.21667,57 103.55,57 L102.75,57 C102.08333,57 101.516669,57.233331 101.05,57.7 C100.583331,58.166669 100.35,58.73333 100.35,59.4 L100.35,104.6 C100.35,105.26667 100.583331,105.833331 101.05,106.3 C101.516669,106.766669 102.08333,107 102.75,107 L103.55,107 C104.21667,107 104.783331,106.766669 105.25,106.3 C105.716669,105.833331 105.95,105.26667 105.95,104.6 L105.95,59.4 Z M150.55,115.6 C150.55,116.533338 150.083338,117 149.15,117 L140.25,117 C139.316662,117 138.85,116.533338 138.85,115.6 L138.85,48.4 C138.85,47.466662 139.316662,47 140.25,47 L149.15,47 C150.083338,47 150.55,47.466662 150.55,48.4 L150.55,115.6 Z M222.85,47 C223.783338,47 224.183334,47.466662 224.05,48.4 L212.25,115.6 C212.116666,116.533338 211.583338,117 210.65,117 L201.85,117 C200.916662,117 200.383334,116.533338 200.25,115.6 L196.75,90.7 L196.65,90.7 L193.15,115.6 C193.016666,116.533338 192.483338,117 191.55,117 L182.75,117 C181.816662,117 181.283334,116.533338 181.15,115.6 L169.35,48.4 C169.216666,47.466662 169.616662,47 170.55,47 L181.35,47 C182.216671,47 182.716666,47.466662 182.85,48.4 L187.35,89.2 L187.75,89.2 L191.15,48.4 C191.283334,47.466662 191.783329,47 192.65,47 L200.75,47 C201.616671,47 202.116666,47.466662 202.25,48.4 L205.65,89.2 L206.05,89.2 L210.55,48.4 C210.683334,47.466662 211.183329,47 212.05,47 L222.85,47 Z M256.65,115.6 C256.783334,116.533338 256.383338,117 255.45,117 L246.35,117 C245.483329,117 244.983334,116.533338 244.85,115.6 L244.05,104.8 L237.85,104.8 L237.05,115.6 C236.916666,116.533338 236.416671,117 235.55,117 L226.45,117 C225.516662,117 225.116666,116.533338 225.25,115.6 L232.75,48.4 C232.883334,47.466662 233.416662,47 234.35,47 L247.55,47 C248.483338,47 249.016666,47.466662 249.15,48.4 L256.65,115.6 Z M243.25,93.6 L241.35,66.5 L240.55,66.5 L238.65,93.6 L243.25,93.6 Z M293.85,47 C294.783338,47 295.25,47.466662 295.25,48.4 L295.25,115.6 C295.25,116.533338 294.783338,117 293.85,117 L287.45,117 C287.049998,117 286.666668,116.866668 286.3,116.6 C285.933331,116.333332 285.683334,116.033335 285.55,115.7 L274.95,82.6 L274.95,115.6 C274.95,116.533338 274.483338,117 273.55,117 L264.65,117 C263.716662,117 263.25,116.533338 263.25,115.6 L263.25,48.4 C263.25,47.466662 263.716662,47 264.65,47 L271.25,47 C271.650002,47 272.033331,47.133332 272.4,47.4 C272.766668,47.666668 273.016666,47.966665 273.15,48.3 L283.55,80.4 L283.55,48.4 C283.55,47.466662 284.016662,47 284.95,47 L293.85,47 Z M329.45,47 C330.383338,47 330.85,47.466662 330.85,48.4 L330.85,57.3 C330.85,58.233338 330.383338,58.7 329.45,58.7 L322.35,58.7 L322.35,115.6 C322.35,116.533338 321.883338,117 320.95,117 L312.05,117 C311.716665,117 311.400001,116.866668 311.1,116.6 C310.799998,116.333332 310.65,116.000002 310.65,115.6 L310.65,58.7 L303.65,58.7 C302.716662,58.7 302.25,58.233338 302.25,57.3 L302.25,48.4 C302.25,47.466662 302.716662,47 303.65,47 L329.45,47 Z M376.25,47 C377.183338,47 377.65,47.466662 377.65,48.4 L377.65,57.3 C377.65,58.233338 377.183338,58.7 376.25,58.7 L369.15,58.7 L369.15,115.6 C369.15,116.533338 368.683338,117 367.75,117 L358.85,117 C358.516665,117 358.200001,116.866668 357.9,116.6 C357.599998,116.333332 357.45,116.000002 357.45,115.6 L357.45,58.7 L350.45,58.7 C349.516662,58.7 349.05,58.233338 349.05,57.3 L349.05,48.4 C349.05,47.466662 349.516662,47 350.45,47 L376.25,47 Z M411.65,105.1 C411.65,106.833342 411.31667,108.466659 410.65,110 C409.98333,111.533341 409.083339,112.866661 407.95,114 C406.816661,115.133339 405.483341,116.03333 403.95,116.7 C402.416659,117.36667 400.783342,117.7 399.05,117.7 L395.25,117.7 C393.516658,117.7 391.883341,117.36667 390.35,116.7 C388.816659,116.03333 387.483339,115.133339 386.35,114 C385.216661,112.866661 384.31667,111.533341 383.65,110 C382.98333,108.466659 382.65,106.833342 382.65,105.1 L382.65,58.9 C382.65,57.166658 382.98333,55.533341 383.65,54 C384.31667,52.466659 385.216661,51.133339 386.35,50 C387.483339,48.866661 388.816659,47.96667 390.35,47.3 C391.883341,46.63333 393.516658,46.3 395.25,46.3 L399.05,46.3 C400.783342,46.3 402.416659,46.63333 403.95,47.3 C405.483341,47.96667 406.816661,48.866661 407.95,50 C409.083339,51.133339 409.98333,52.466659 410.65,54 C411.31667,55.533341 411.65,57.166658 411.65,58.9 L411.65,105.1 Z M399.95,59.4 C399.95,58.73333 399.716669,58.166669 399.25,57.7 C398.783331,57.233331 398.21667,57 397.55,57 L396.75,57 C396.08333,57 395.516669,57.233331 395.05,57.7 C394.583331,58.166669 394.35,58.73333 394.35,59.4 L394.35,104.6 C394.35,105.26667 394.583331,105.833331 395.05,106.3 C395.516669,106.766669 396.08333,107 396.75,107 L397.55,107 C398.21667,107 398.783331,106.766669 399.25,106.3 C399.716669,105.833331 399.95,105.26667 399.95,104.6 L399.95,59.4 Z M457.45,105.3 C458.383338,105.3 458.85,105.766662 458.85,106.7 L458.85,115.6 C458.85,116.533338 458.383338,117 457.45,117 L434.75,117 C433.816662,117 433.35,116.533338 433.35,115.6 L433.35,48.4 C433.35,47.466662 433.816662,47 434.75,47 L443.65,47 C444.583338,47 445.05,47.466662 445.05,48.4 L445.05,105.3 L457.45,105.3 Z M477.55,115.6 C477.55,116.533338 477.083338,117 476.15,117 L467.25,117 C466.316662,117 465.85,116.533338 465.85,115.6 L465.85,48.4 C465.85,47.466662 466.316662,47 467.25,47 L476.15,47 C477.083338,47 477.55,47.466662 477.55,48.4 L477.55,115.6 Z M517.55,47 C518.483338,47 518.883334,47.466662 518.75,48.4 L506.95,115.6 C506.816666,116.533338 506.283338,117 505.35,117 L496.55,117 C495.616662,117 495.083334,116.533338 494.95,115.6 L483.15,48.4 C483.016666,47.466662 483.416662,47 484.35,47 L495.15,47 C496.016671,47 496.516666,47.466662 496.65,48.4 L500.75,90.8 L501.15,90.8 L505.25,48.4 C505.383334,47.466662 505.883329,47 506.75,47 L517.55,47 Z M547.45,105.3 C548.383338,105.3 548.85,105.766662 548.85,106.7 L548.85,115.6 C548.85,116.533338 548.383338,117 547.45,117 L525.75,117 C524.816662,117 524.35,116.533338 524.35,115.6 L524.35,48.4 C524.35,47.466662 524.816662,47 525.75,47 L547.45,47 C548.383338,47 548.85,47.466662 548.85,48.4 L548.85,57.3 C548.85,58.233338 548.383338,58.7 547.45,58.7 L536.05,58.7 L536.05,73.1 L545.95,73.1 C546.883338,73.1 547.35,73.566662 547.35,74.5 L547.35,83.4 C547.35,84.333338 546.883338,84.8 545.95,84.8 L536.05,84.8 L536.05,105.3 L547.45,105.3 Z M599.15,47 C600.083338,47 600.55,47.466662 600.55,48.4 L600.55,115.6 C600.55,116.533338 600.083338,117 599.15,117 L590.25,117 C589.316662,117 588.85,116.533338 588.85,115.6 L588.85,87 L582.25,87 L582.25,115.6 C582.25,116.533338 581.783338,117 580.85,117 L571.95,117 C571.016662,117 570.55,116.533338 570.55,115.6 L570.55,48.4 C570.55,47.466662 571.016662,47 571.95,47 L580.85,47 C581.783338,47 582.25,47.466662 582.25,48.4 L582.25,75.3 L588.85,75.3 L588.85,48.4 C588.85,47.466662 589.316662,47 590.25,47 L599.15,47 Z M632.65,105.3 C633.583338,105.3 634.05,105.766662 634.05,106.7 L634.05,115.6 C634.05,116.533338 633.583338,117 632.65,117 L610.95,117 C610.016662,117 609.55,116.533338 609.55,115.6 L609.55,48.4 C609.55,47.466662 610.016662,47 610.95,47 L632.65,47 C633.583338,47 634.05,47.466662 634.05,48.4 L634.05,57.3 C634.05,58.233338 633.583338,58.7 632.65,58.7 L621.25,58.7 L621.25,73.1 L631.15,73.1 C632.083338,73.1 632.55,73.566662 632.55,74.5 L632.55,83.4 C632.55,84.333338 632.083338,84.8 631.15,84.8 L621.25,84.8 L621.25,105.3 L632.65,105.3 Z M673.55,115.6 C673.750001,116.533338 673.416671,117 672.55,117 L663.45,117 C663.049998,117 662.666668,116.866668 662.3,116.6 C661.933331,116.333332 661.683334,116.000002 661.55,115.6 L654.25,91.1 L654.25,117 L654.15,116 C654.016666,116.66667 653.583337,117 652.85,117 L643.95,117 C643.016662,117 642.55,116.533338 642.55,115.6 L642.55,48.4 C642.55,47.466662 643.016662,47 643.95,47 L658.95,47 C660.683342,47 662.316659,47.33333 663.85,48 C665.383341,48.66667 666.716661,49.566661 667.85,50.7 C668.983339,51.833339 669.88333,53.166659 670.55,54.7 C671.21667,56.233341 671.55,57.866658 671.55,59.6 L671.55,75.9 C671.55,78.366679 670.916673,80.5833235 669.65,82.55 C668.383327,84.5166765 666.716677,86.033328 664.65,87.1 L673.55,115.6 Z M654.25,77.8 L657.45,77.8 C658.11667,77.8 658.683331,77.566669 659.15,77.1 C659.616669,76.633331 659.85,76.06667 659.85,75.4 L659.85,60.1 C659.85,59.43333 659.616669,58.866669 659.15,58.4 C658.683331,57.933331 658.11667,57.7 657.45,57.7 L654.25,57.7 L654.25,77.8 Z M703.25,105.3 C704.183338,105.3 704.65,105.766662 704.65,106.7 L704.65,115.6 C704.65,116.533338 704.183338,117 703.25,117 L681.55,117 C680.616662,117 680.15,116.533338 680.15,115.6 L680.15,48.4 C680.15,47.466662 680.616662,47 681.55,47 L703.25,47 C704.183338,47 704.65,47.466662 704.65,48.4 L704.65,57.3 C704.65,58.233338 704.183338,58.7 703.25,58.7 L691.85,58.7 L691.85,73.1 L701.75,73.1 C702.683338,73.1 703.15,73.566662 703.15,74.5 L703.15,83.4 C703.15,84.333338 702.683338,84.8 701.75,84.8 L691.85,84.8 L691.85,105.3 L703.25,105.3 Z M718.45,111.3 C718.45,109.566658 719.083327,108.066673 720.35,106.8 C721.616673,105.533327 723.116658,104.9 724.85,104.9 C726.583342,104.9 728.083327,105.533327 729.35,106.8 C730.616673,108.066673 731.25,109.566658 731.25,111.3 C731.25,113.033342 730.616673,114.533327 729.35,115.8 C728.083327,117.066673 726.583342,117.7 724.85,117.7 C723.116658,117.7 721.616673,117.066673 720.35,115.8 C719.083327,114.533327 718.45,113.033342 718.45,111.3 Z M727.45,46.3 C730.850017,46.3 733.583323,46.8833275 735.65,48.05 C737.716677,49.2166725 739.333327,50.7166575 740.5,52.55 C741.666673,54.3833425 742.433331,56.4166555 742.8,58.65 C743.166669,60.8833445 743.316667,63.033323 743.25,65.1 C743.183333,67.033343 743.083334,68.566661 742.95,69.7 C742.816666,70.833339 742.516669,71.899995 742.05,72.9 C741.583331,73.900005 740.850005,75.0166605 739.85,76.25 C738.849995,77.4833395 737.450009,79.133323 735.65,81.2 C734.449994,82.600007 733.250006,83.933327 732.05,85.2 C730.849994,86.466673 729.950003,87.833326 729.35,89.3 C728.949998,90.233338 728.650001,91.4833255 728.45,93.05 C728.249999,94.6166745 728.083334,96.033327 727.95,97.3 L727.85,98.8 C727.85,99.133335 727.733334,99.399999 727.5,99.6 C727.266665,99.800001 726.983335,99.9 726.65,99.9 L722.45,99.9 C721.716663,99.9 721.283334,99.533337 721.15,98.8 C721.016666,97.199992 720.883334,95.73334 720.75,94.4 C720.616666,93.266661 720.516667,92.200005 720.45,91.2 C720.383333,90.199995 720.35,89.566668 720.35,89.3 C720.283333,87.766659 720.516664,86.33334 721.05,85 C721.583336,83.66666 722.266662,82.3500065 723.1,81.05 C723.933338,79.7499935 724.899995,78.43334 726,77.1 C727.100005,75.76666 728.149995,74.333341 729.15,72.8 C729.750003,71.866662 730.199998,71.0833365 730.5,70.45 C730.800002,69.8166635 731.033332,69.2166695 731.2,68.65 C731.366667,68.0833305 731.45,67.5166695 731.45,66.95 L731.45,64.9 C731.45,62.633322 731.216669,60.8500065 730.75,59.55 C730.283331,58.2499935 729.183342,57.6 727.45,57.6 C726.183327,57.6 725.266669,58.066662 724.7,59 C724.13333,59.933338 723.85,61.166659 723.85,62.7 L723.85,68 C723.85,68.333335 723.750001,68.633332 723.55,68.9 C723.349999,69.166668 723.083335,69.333333 722.75,69.4 L713.25,71.7 C712.916665,71.833334 712.650001,71.800001 712.45,71.6 C712.249999,71.399999 712.15,71.133335 712.15,70.8 L712.15,63.2 C712.15,57.733306 713.48332,53.5500145 716.15,50.65 C718.81668,47.7499855 722.583309,46.3 727.45,46.3 Z" id="DO-I-WANT-TO-LIVE-HE" fill="#1CBF6B"></path>
    </g>
</svg>